{
	"asset":{
		"generator":"Khronos glTF Blender I/O v5.2.40",
		"version":"2.0"
	},
	"scene":0,
	"scenes":[
		{
			"name":"Scene",
			"nodes":[
				1
			]
		}
	],
	"nodes":[
		{
			"mesh":0,
			"name":"geometry_0",
			"rotation":[
				0.09638351947069168,
				-0.05223238468170166,
				-0.037857670336961746,
				0.993251621723175
			],
			"translation":[
				0.05257060378789902,
				-0.02240881882607937,
				0.20205824077129364
			]
		},
		{
			"children":[
				0
			],
			"name":"world",
			"rotation":[
				-0.7152508497238159,
				-0.38939040899276733,
				-0.3159162700176239,
				0.4868144989013672
			]
		}
	],
	"materials":[
		{
			"doubleSided":true,
			"name":"DefaultMaterial",
			"pbrMetallicRoughness":{
				"metallicFactor":0,
				"roughnessFactor":0.5
			}
		}
	],
	"meshes":[
		{
			"name":"geometry_0",
			"primitives":[
				{
					"attributes":{
						"POSITION":0,
						"NORMAL":1,
						"COLOR_0":2
					},
					"indices":3,
					"material":0
				}
			]
		}
	],
	"accessors":[
		{
			"bufferView":0,
			"componentType":5126,
			"count":403281,
			"max":[
				0.40187740325927734,
				0.45318150520324707,
				0.2898305654525757
			],
			"min":[
				-0.35094261169433594,
				-0.4256893992424011,
				-0.2474859356880188
			],
			"type":"VEC3"
		},
		{
			"bufferView":1,
			"componentType":5126,
			"count":403281,
			"type":"VEC3"
		},
		{
			"bufferView":2,
			"componentType":5126,
			"count":403281,
			"type":"VEC3"
		},
		{
			"bufferView":3,
			"componentType":5125,
			"count":403392,
			"type":"SCALAR"
		}
	],
	"bufferViews":[
		{
			"buffer":0,
			"byteLength":4839372,
			"byteOffset":0,
			"target":34962
		},
		{
			"buffer":0,
			"byteLength":4839372,
			"byteOffset":4839372,
			"target":34962
		},
		{
			"buffer":0,
			"byteLength":4839372,
			"byteOffset":9678744,
			"target":34962
		},
		{
			"buffer":0,
			"byteLength":1613568,
			"byteOffset":14518116,
			"target":34963
		}
	],
	"buffers":[
		{
			"byteLength":16131684,
			"uri":"Lotus.bin"
		}
	]
}
